<?xml version="1.0" standalone="no"?>
<!DOCTYPE svg PUBLIC "-//W3C//DTD SVG 20010904//EN"
 "http://www.w3.org/TR/2001/REC-SVG-20010904/DTD/svg10.dtd">
<svg version="1.0" xmlns="http://www.w3.org/2000/svg"
 width="1200.000000pt" height="1200.000000pt" viewBox="0 0 1200.000000 1200.000000"
 preserveAspectRatio="xMidYMid meet">

<g transform="translate(0.000000,1200.000000) scale(0.100000,-0.100000)"
fill="#000000" stroke="none">
<path d="M2720 9788 c0 -13 119 -346 205 -573 514 -1363 1084 -2502 1593
-3180 370 -494 695 -761 1035 -852 93 -25 252 -23 352 6 208 58 526 297 649
488 34 53 66 87 122 129 242 182 359 454 314 732 -49 301 -267 642 -609 955
-207 189 -352 286 -717 478 -493 259 -740 402 -1059 615 -399 266 -640 475
-785 684 -29 41 -49 64 -45 50 10 -33 166 -465 203 -560 17 -41 28 -77 27 -78
-6 -6 -280 173 -435 284 -402 286 -689 557 -813 766 -20 34 -37 59 -37 56z"/>
<path d="M8893 6909 c-151 -18 -344 -81 -501 -164 -219 -116 -390 -252 -616
-489 -419 -438 -839 -744 -1401 -1020 -669 -329 -1522 -575 -2085 -601 -361
-16 -776 -97 -1130 -220 -776 -270 -1454 -793 -1951 -1505 -62 -88 -150 -233
-187 -307 l-31 -60 154 102 c506 338 1060 544 1680 625 542 71 1147 38 1675
-92 69 -16 128 -33 132 -37 4 -4 -127 -47 -292 -96 -165 -49 -300 -92 -300
-96 0 -3 75 -24 168 -47 446 -111 825 -173 1247 -203 201 -14 652 -6 835 15
686 81 1236 291 1712 652 57 43 175 151 264 239 236 235 367 419 456 638 134
330 310 555 573 729 165 110 325 177 530 223 163 37 286 40 774 21 223 -8 406
-14 408 -13 1 2 -137 108 -307 237 l-310 235 -78 160 c-152 311 -291 515 -482
706 -223 225 -435 336 -700 369 -95 11 -133 11 -237 -1z"/>
</g>
</svg>
